<?xml version="1.0" encoding="utf-8"?>
<!-- Generator: Adobe Illustrator 19.1.0, SVG Export Plug-In . SVG Version: 6.00 Build 0)  -->
<!DOCTYPE svg PUBLIC "-//W3C//DTD SVG 1.1//EN" "http://www.w3.org/Graphics/SVG/1.1/DTD/svg11.dtd">
<svg version="1.1" id="Layer_1" xmlns="http://www.w3.org/2000/svg" xmlns:xlink="http://www.w3.org/1999/xlink" x="0px" y="0px"
	 viewBox="0 0 500 500" style="enable-background:new 0 0 500 500;" xml:space="preserve">
<style type="text/css">
	.st0{enable-background:new    ;}
	.st1{fill:#FFAC33;}
	.st2{opacity:0.84;fill:#FFAC33;}
	.st3{opacity:0.68;fill:#FFAC33;}
	.st4{opacity:0.52;fill:#FFAC33;}
	.st5{opacity:0.36;fill:#FFAC33;}
	.st6{opacity:0.2;fill:#FFAC33;}
	.st7{fill:#FF9F17;}
	.st8{opacity:0.84;fill:#FF9F17;}
	.st9{opacity:0.68;fill:#FF9F17;}
	.st10{opacity:0.52;fill:#FF9F17;}
	.st11{opacity:0.36;fill:#FF9F17;}
	.st12{opacity:0.2;fill:#FF9F17;}
	.st13{fill:#17A4FF;}
	.st14{fill:#0870B2;}
<animateMotion
    xlink:href="#bigfriend"
    dur="3s"
    begin="0s"
    fill="freeze"
    repeatCount="indefinite"
    path="M364.3,247.1c0,28.8-23.3,51.1-52.1,51.1c-28.8,0-52.1-22.3-52.1-51.1s23.3-52.1,52.1-52.1
	C341,195,364.3,218.3,364.3,247.1z"
    rotate="auto" />

</style>
<g>
<!-- 	<path class="st1" d="M266.8,216.4L58.9,96.4C43.1,87.2,30,94.7,30,113.1V353c0,18.3,13.1,25.8,28.9,16.6l207.8-120
		C282.6,240.5,282.7,225.5,266.8,216.4z" id="bigfriend" transform="translate(-266.8, -216.4)">
	  <animate attributeName="transform"
	                attributeType="XML"
	                type="scale"
	                from="1"
	                to="0.2"
	                dur="10s"
	                repeatCount="indefinite"/>
	</path> -->
	<path class="st8" d="M302,436.3V276.4c0-18.3-12.9-25.8-28.8-16.6l-138.5,80c-15.9,9.2-15.8,24.1,0,33.3l138.4,80
		C289.1,462.1,302,454.6,302,436.3z" id="bigfriend" transform="translate(-302, -436)"/>
	<path class="st9" d="M427.5,311.9l-86.6-50c-15.9-9.2-28.9-1.7-28.9,16.6v99.9c0,18.3,13,25.8,28.9,16.6l86.6-50
		C443.3,336,443.4,321.1,427.5,311.9z"/>
	<path class="st10" d="M425,261.6v-54.9c0-18.3-13.4-25.8-29.2-16.6L348,217.5c-15.9,9.2-16,24.1-0.1,33.3l47.9,27.5
		C411.7,287.4,425,279.9,425,261.6z"/>
	<path class="st11" d="M364.4,169.1l-30.2-17.3c-3.9-2.3-7.6-3.4-10.9-3.4c-2.1,0-4.1,0.5-5.7,1.5c-4.2,2.4-6.6,7.9-6.6,15.2v34.6
		c0,7.4,2.3,12.8,6.6,15.2c4.3,2.5,10.2,1.8,16.6-2l30.2-17.3c6.4-3.7,9.9-8.4,9.9-13.3S370.8,172.8,364.4,169.1z"/>
	<path class="st12" d="M294.5,171.8c-4.2-2.4-9.9-1.7-16.3,2l-8,4.7c-6.4,3.7-9.9,8.4-9.9,13.3c0,4.9,3.5,9.6,10,13.3l8,4.7
		c6.4,3.7,12.2,4.4,16.3,2c4.2-2.4,6.5-7.8,6.5-15.3V187C301,179.6,298.7,174.2,294.5,171.8z"/>
</g>
</svg>
